<svg id="Layer_1" data-name="Layer 1" xmlns="http://www.w3.org/2000/svg" viewBox="0 0 1080 1080"><defs><style>.cls-1{fill:#4845df;}.cls-1,.cls-2{fill-rule:evenodd;}.cls-2{fill:#16173e;}</style></defs><path class="cls-1" d="M539.94,722.34c100.7,0,182.35-81.65,182.35-182.36S640.64,357.63,539.94,357.63V108.42c238.34,0,431.55,193.22,431.55,431.56S778.28,971.55,539.94,971.55Z"/><path class="cls-2" d="M669,411.08c-71.21-71.21-186.67-71.21-257.89,0s-71.21,186.68,0,257.89L234.91,845.19c-168.54-168.54-168.54-441.79,0-610.33s441.78-168.53,610.32,0Z"/><path class="cls-2" d="M411.13,411.07c-71.21,71.22-71.21,186.68,0,257.89S597.81,740.17,669,669L845.24,845.18c-168.54,168.53-441.79,168.53-610.33,0s-168.54-441.79,0-610.32Z"/></svg>